<svg width="23" height="18" viewBox="0 0 23 18" fill="none" xmlns="http://www.w3.org/2000/svg">
<path d="M22.137 8.882C22.137 9.492 21.715 9.937 21.1055 9.937L5.672 9.937L3.176 9.843L7.0195 13.347L9.6445 16.019C9.832 16.2065 9.926 16.4875 9.926 16.757C9.926 17.343 9.481 17.777 8.906 17.777C8.625 17.777 8.379 17.671 8.1445 17.4485L0.3515 9.668C0.1175 9.445 4.01074e-07 9.1755 3.88288e-07 8.883C3.75984e-07 8.6015 0.1175 8.332 0.3515 8.109L8.1445 0.328C8.3795 0.1055 8.625 -3.77011e-07 8.9065 -3.89315e-07C9.4805 -4.14406e-07 9.926 0.4335 9.926 1.0075C9.926 1.289 9.832 1.57 9.6445 1.7575L7.0195 4.4175L3.1645 7.9335L5.672 7.8395L21.1055 7.8395C21.715 7.8395 22.137 8.2725 22.137 8.882Z" fill="#1A1A1A"/>
</svg>
