<svg  viewBox="0 0 23 18" fill="none" xmlns="http://www.w3.org/2000/svg">
<path d="M-3.66279e-05 8.882C-3.66545e-05 9.492 0.421962 9.937 1.03146 9.937L16.465 9.937L18.961 9.843L15.1175 13.347L12.4925 16.019C12.305 16.2065 12.211 16.4875 12.211 16.757C12.211 17.343 12.656 17.777 13.231 17.777C13.512 17.777 13.758 17.671 13.9925 17.4485L21.7855 9.668C22.0195 9.445 22.137 9.1755 22.137 8.883C22.137 8.6015 22.0195 8.332 21.7855 8.109L13.9925 0.328C13.7575 0.1055 13.512 -3.77011e-07 13.2305 -3.89315e-07C12.6565 -4.14406e-07 12.211 0.4335 12.211 1.0075C12.211 1.289 12.305 1.57 12.4925 1.7575L15.1175 4.4175L18.9725 7.9335L16.465 7.8395L1.03146 7.8395C0.421962 7.8395 -3.66012e-05 8.2725 -3.66279e-05 8.882Z" fill="#1A1A1A"/>
</svg>
