<svg width="70" height="70" viewBox="0 0 70 70" fill="none" xmlns="http://www.w3.org/2000/svg">
<path d="M62.4007 53.551C57.7723 58.4943 50.7686 61 41.5876 61H38.2886V51.8383L40.941 51.315C45.4605 50.4245 48.6044 48.6728 50.2869 46.102C51.1648 44.7171 51.6627 43.1314 51.7319 41.5H41.5876C40.7126 41.5 39.8735 41.1576 39.2548 40.5481C38.6362 39.9386 38.2886 39.112 38.2886 38.25V15.5C38.2886 11.9152 41.2478 9 44.8865 9H64.6803C65.5552 9 66.3943 9.34241 67.013 9.9519C67.6317 10.5614 67.9793 11.388 67.9793 12.25V28.5L67.9694 37.9867C67.9991 38.3475 68.6259 46.895 62.4007 53.551ZM8.59792 9H28.3917C29.2666 9 30.1057 9.34241 30.7244 9.9519C31.3431 10.5614 31.6907 11.388 31.6907 12.25V28.5L31.6808 37.9867C31.7105 38.3475 32.3373 46.895 26.1121 53.551C21.4837 58.4943 14.48 61 5.29896 61H2V51.8383L4.65237 51.315C9.17195 50.4245 12.3159 48.6728 13.9983 46.102C14.8762 44.7171 15.3741 43.1314 15.4433 41.5H5.29896C4.42402 41.5 3.58492 41.1576 2.96624 40.5481C2.34756 39.9386 2 39.112 2 38.25V15.5C2 11.9152 4.95917 9 8.59792 9Z" fill="#FFA943"/>
</svg>
