<svg width="50" height="50" viewBox="0 0 50 50" fill="none" xmlns="http://www.w3.org/2000/svg">
<circle cx="25" cy="25" r="24" stroke="white" stroke-width="2"/>
<g clip-path="url(#clip0_1_76)">
<path d="M33.0682 16.4891C31.9682 15.3783 30.6579 14.4978 29.2139 13.8987C27.7699 13.2997 26.2211 12.9942 24.6577 13.0001C18.1072 13.0001 12.7687 18.3371 12.7627 24.8891C12.7627 26.9876 13.3117 29.0291 14.3482 30.8366L12.6667 37.0001L18.9727 35.3471C20.7165 36.2984 22.6714 36.7962 24.6577 36.7946H24.6637C31.2157 36.7946 36.5527 31.4576 36.5587 24.8996C36.5601 23.3367 36.2522 21.7889 35.6529 20.3455C35.0536 18.9021 34.1762 17.5914 33.0682 16.4891ZM24.6577 34.7816C22.8865 34.7802 21.1481 34.3036 19.6237 33.4016L19.2637 33.1856L15.5227 34.1666L16.5217 30.5171L16.2877 30.1406C15.2975 28.5661 14.7737 26.7431 14.7772 24.8831C14.7772 19.4441 19.2127 15.0071 24.6637 15.0071C25.9624 15.0048 27.2486 15.2595 28.4483 15.7566C29.648 16.2537 30.7374 16.9834 31.6537 17.9036C32.5731 18.8203 33.3019 19.9099 33.7983 21.1096C34.2946 22.3092 34.5487 23.5953 34.5457 24.8936C34.5397 30.3521 30.1042 34.7816 24.6577 34.7816ZM30.0802 27.3806C29.7847 27.2321 28.3252 26.5136 28.0507 26.4116C27.7777 26.3141 27.5782 26.2631 27.3832 26.5601C27.1837 26.8556 26.6137 27.5291 26.4427 27.7226C26.2717 27.9221 26.0947 27.9446 25.7977 27.7976C25.5022 27.6476 24.5437 27.3356 23.4097 26.3201C22.5247 25.5326 21.9322 24.5576 21.7552 24.2621C21.5842 23.9651 21.7387 23.8061 21.8872 23.6576C22.0177 23.5256 22.1827 23.3096 22.3312 23.1386C22.4812 22.9676 22.5307 22.8416 22.6282 22.6436C22.7257 22.4426 22.6792 22.2716 22.6057 22.1231C22.5307 21.9746 21.9382 20.5091 21.6877 19.9181C21.4477 19.3346 21.2032 19.4156 21.0202 19.4081C20.8492 19.3976 20.6497 19.3976 20.4502 19.3976C20.2996 19.4014 20.1514 19.4363 20.0148 19.5001C19.8783 19.5638 19.7564 19.6551 19.6567 19.7681C19.3837 20.0651 18.6202 20.7836 18.6202 22.2491C18.6202 23.7146 19.6852 25.1231 19.8352 25.3226C19.9822 25.5221 21.9262 28.5206 24.9097 29.8106C25.6147 30.1181 26.1697 30.2996 26.6032 30.4376C27.3157 30.6656 27.9592 30.6311 28.4722 30.5576C29.0422 30.4706 30.2287 29.8376 30.4792 29.1431C30.7252 28.4471 30.7252 27.8531 30.6502 27.7286C30.5767 27.6026 30.3772 27.5291 30.0802 27.3806Z" fill="white"/>
</g>
<defs>
<clipPath id="clip0_1_76">
<rect width="24" height="24" fill="white" transform="translate(12.6667 13)"/>
</clipPath>
</defs>
</svg>
