<svg width="50" height="50" viewBox="0 0 50 50" fill="none" xmlns="http://www.w3.org/2000/svg">
<circle cx="25" cy="25" r="24" stroke="white" stroke-width="2"/>
<g clip-path="url(#clip0_1_68)">
<path d="M24.6667 13C21.4102 13 21.0007 13.015 19.7212 13.072C18.4417 13.132 17.5702 13.333 16.8067 13.63C16.0055 13.9305 15.28 14.4031 14.6812 15.0145C14.0698 15.6132 13.5972 16.3388 13.2967 17.14C12.9997 17.902 12.7972 18.775 12.7387 20.05C12.6817 21.3325 12.6667 21.7405 12.6667 25.0015C12.6667 28.2595 12.6817 28.6675 12.7387 29.947C12.7987 31.225 12.9997 32.0965 13.2967 32.86C13.6042 33.649 14.0137 34.318 14.6812 34.9855C15.3472 35.653 16.0162 36.064 16.8052 36.37C17.5702 36.667 18.4402 36.8695 19.7182 36.928C20.9992 36.985 21.4072 37 24.6667 37C27.9262 37 28.3327 36.985 29.6137 36.928C30.8902 36.868 31.7647 36.667 32.5282 36.37C33.3289 36.0693 34.054 35.5967 34.6522 34.9855C35.3197 34.318 35.7292 33.649 36.0367 32.86C36.3322 32.0965 36.5347 31.225 36.5947 29.947C36.6517 28.6675 36.6667 28.2595 36.6667 25C36.6667 21.7405 36.6517 21.3325 36.5947 20.0515C36.5347 18.775 36.3322 17.902 36.0367 17.14C35.7363 16.3388 35.2636 15.6132 34.6522 15.0145C34.0535 14.4031 33.328 13.9305 32.5267 13.63C31.7617 13.333 30.8887 13.1305 29.6122 13.072C28.3312 13.015 27.9247 13 24.6637 13H24.6667ZM23.5912 15.163H24.6682C27.8722 15.163 28.2517 15.1735 29.5162 15.232C30.6862 15.2845 31.3222 15.481 31.7452 15.6445C32.3047 15.862 32.7052 16.123 33.1252 16.543C33.5452 16.963 33.8047 17.362 34.0222 17.923C34.1872 18.3445 34.3822 18.9805 34.4347 20.1505C34.4932 21.415 34.5052 21.7945 34.5052 24.997C34.5052 28.1995 34.4932 28.5805 34.4347 29.845C34.3822 31.015 34.1857 31.6495 34.0222 32.0725C33.8285 32.5929 33.5216 33.0637 33.1237 33.451C32.7037 33.871 32.3047 34.1305 31.7437 34.348C31.3237 34.513 30.6877 34.708 29.5162 34.762C28.2517 34.819 27.8722 34.8325 24.6682 34.8325C21.4642 34.8325 21.0832 34.819 19.8187 34.762C18.6487 34.708 18.0142 34.513 17.5912 34.348C17.0705 34.1549 16.5991 33.8485 16.2112 33.451C15.8127 33.0634 15.5052 32.592 15.3112 32.071C15.1477 31.6495 14.9512 31.0135 14.8987 29.8435C14.8417 28.579 14.8297 28.1995 14.8297 24.994C14.8297 21.7885 14.8417 21.412 14.8987 20.1475C14.9527 18.9775 15.1477 18.3415 15.3127 17.9185C15.5302 17.359 15.7912 16.9585 16.2112 16.5385C16.6312 16.1185 17.0302 15.859 17.5912 15.6415C18.0142 15.4765 18.6487 15.2815 19.8187 15.2275C20.9257 15.1765 21.3547 15.1615 23.5912 15.16V15.163ZM31.0732 17.155C30.8841 17.155 30.6969 17.1922 30.5222 17.2646C30.3475 17.337 30.1887 17.443 30.055 17.5768C29.9213 17.7105 29.8152 17.8692 29.7429 18.0439C29.6705 18.2186 29.6332 18.4059 29.6332 18.595C29.6332 18.7841 29.6705 18.9714 29.7429 19.1461C29.8152 19.3208 29.9213 19.4795 30.055 19.6132C30.1887 19.747 30.3475 19.853 30.5222 19.9254C30.6969 19.9978 30.8841 20.035 31.0732 20.035C31.4552 20.035 31.8214 19.8833 32.0915 19.6132C32.3615 19.3432 32.5132 18.9769 32.5132 18.595C32.5132 18.2131 32.3615 17.8468 32.0915 17.5768C31.8214 17.3067 31.4552 17.155 31.0732 17.155ZM24.6682 18.838C23.8509 18.8252 23.0391 18.9752 22.2802 19.2792C21.5213 19.5832 20.8305 20.0351 20.248 20.6086C19.6654 21.1822 19.2028 21.8659 18.887 22.6199C18.5712 23.3739 18.4086 24.1833 18.4086 25.0007C18.4086 25.8182 18.5712 26.6276 18.887 27.3816C19.2028 28.1356 19.6654 28.8193 20.248 29.3929C20.8305 29.9664 21.5213 30.4183 22.2802 30.7223C23.0391 31.0263 23.8509 31.1763 24.6682 31.1635C26.2861 31.1383 27.8291 30.4779 28.9642 29.3249C30.0994 28.1719 30.7356 26.6188 30.7356 25.0007C30.7356 23.3827 30.0994 21.8296 28.9642 20.6766C27.8291 19.5236 26.2861 18.8632 24.6682 18.838ZM24.6682 20.9995C25.1936 20.9995 25.7138 21.103 26.1992 21.304C26.6845 21.5051 27.1255 21.7997 27.497 22.1712C27.8685 22.5427 28.1632 22.9837 28.3642 23.4691C28.5653 23.9544 28.6687 24.4746 28.6687 25C28.6687 25.5254 28.5653 26.0456 28.3642 26.5309C28.1632 27.0163 27.8685 27.4573 27.497 27.8288C27.1255 28.2003 26.6845 28.4949 26.1992 28.696C25.7138 28.897 25.1936 29.0005 24.6682 29.0005C23.6073 29.0005 22.5897 28.579 21.8395 27.8288C21.0892 27.0785 20.6677 26.061 20.6677 25C20.6677 23.939 21.0892 22.9215 21.8395 22.1712C22.5897 21.421 23.6073 20.9995 24.6682 20.9995Z" fill="white"/>
</g>
<defs>
<clipPath id="clip0_1_68">
<rect width="24" height="24" fill="white" transform="translate(12.6667 13)"/>
</clipPath>
</defs>
</svg>
