<svg width="50" height="50" viewBox="0 0 50 50" fill="none" xmlns="http://www.w3.org/2000/svg">
<circle cx="25" cy="25" r="24" stroke="white" stroke-width="2"/>
<g clip-path="url(#clip0_1_60)">
<path d="M27.1228 30.441C28.4164 30.1474 29.65 29.6339 30.7698 28.923L30.7228 28.951C31.1142 28.6864 31.3871 28.2797 31.4838 27.8173C31.5804 27.3548 31.4931 26.8729 31.2403 26.4738C30.9876 26.0746 30.5894 25.7896 30.1301 25.6791C29.6707 25.5686 29.1864 25.6414 28.7798 25.882L28.7878 25.877C27.6038 26.628 26.1628 27.073 24.6178 27.073C23.0728 27.073 21.6308 26.627 20.4158 25.858L20.4478 25.877C20.0424 25.6217 19.5524 25.5371 19.0848 25.6416C18.6173 25.7462 18.21 26.0314 17.9518 26.435L17.9478 26.442V26.447C17.6919 26.8525 17.6072 27.3428 17.7122 27.8107C17.8171 28.2785 18.1032 28.6857 18.5078 28.943L18.5148 28.947C19.5973 29.6332 20.7881 30.1313 22.0368 30.42L22.1148 30.435L18.6458 33.9C18.4752 34.0674 18.3397 34.2672 18.2474 34.4877C18.155 34.7082 18.1075 34.9449 18.1078 35.184C18.1078 35.673 18.3028 36.116 18.6178 36.44L18.6478 36.47C18.9738 36.797 19.4248 36.999 19.9228 36.999C20.4208 36.999 20.8718 36.797 21.1978 36.47L24.6188 33.066L28.0188 36.472C28.1872 36.6405 28.3872 36.7741 28.6073 36.8653C28.8274 36.9565 29.0632 37.0035 29.3015 37.0036C29.5397 37.0036 29.7756 36.9567 29.9957 36.8656C30.2158 36.7745 30.4158 36.6409 30.5843 36.4725C30.7528 36.3041 30.8865 36.1041 30.9777 35.884C31.0689 35.6639 31.1159 35.4281 31.1159 35.1898C31.116 34.9516 31.0691 34.7157 30.978 34.4956C30.8868 34.2755 30.7532 34.0755 30.5848 33.907L27.1228 30.441ZM24.6178 25.389C25.8426 25.3878 27.0396 25.0235 28.0574 24.3422C29.0752 23.6609 29.8682 22.6931 30.3361 21.5612C30.8039 20.4293 30.9258 19.184 30.6861 17.9829C30.4464 16.7818 29.856 15.6787 28.9895 14.813C28.123 13.9474 27.0194 13.3581 25.818 13.1196C24.6167 12.881 23.3716 13.0041 22.2401 13.473C21.1086 13.942 20.1416 14.7359 19.4613 15.7544C18.7809 16.7729 18.4178 17.9702 18.4178 19.195V19.201C18.421 20.8432 19.0756 22.4172 20.238 23.5773C21.4004 24.7374 22.9756 25.389 24.6178 25.389ZM24.6178 16.631C25.125 16.631 25.6207 16.7813 26.0424 17.063C26.4642 17.3447 26.7929 17.745 26.9872 18.2135C27.1814 18.6819 27.2325 19.1975 27.1338 19.6949C27.0352 20.1924 26.7913 20.6494 26.433 21.0083C26.0746 21.3672 25.618 21.6118 25.1207 21.7112C24.6234 21.8106 24.1078 21.7604 23.639 21.5669C23.1702 21.3733 22.7694 21.0452 22.4871 20.6239C22.2047 20.2026 22.0536 19.7071 22.0528 19.2V19.198C22.0528 18.5175 22.323 17.8649 22.804 17.3835C23.2849 16.9022 23.9374 16.6315 24.6178 16.631Z" fill="white"/>
</g>
<defs>
<clipPath id="clip0_1_60">
<rect width="14" height="24" fill="white" transform="translate(17.6667 13)"/>
</clipPath>
</defs>
</svg>
