<svg width="50" height="50" viewBox="0 0 50 50" fill="none" xmlns="http://www.w3.org/2000/svg">
<circle cx="25" cy="25" r="24" stroke="white" stroke-width="2"/>
<g clip-path="url(#clip0_1_64)">
<path d="M22.1557 13.0042L22.8847 13.0012H26.4487L27.1787 13.0042L28.0927 13.0142L28.5257 13.0212L28.9437 13.0322L29.3467 13.0462L29.7347 13.0622L30.1087 13.0832L30.4687 13.1082L30.8137 13.1382L31.1467 13.1712C32.8867 13.3672 34.0797 13.7872 34.9797 14.6872C35.8797 15.5872 36.2997 16.7792 36.4957 18.5202L36.5297 18.8532L36.5587 19.1992L36.5837 19.5592L36.6037 19.9322L36.6287 20.5202L36.6407 20.9302L36.6537 21.5742L36.6627 22.4892L36.6667 23.4692L36.6657 26.7822L36.6627 27.5122L36.6527 28.4262L36.6457 28.8592L36.6347 29.2772L36.6207 29.6802L36.6047 30.0682L36.5837 30.4422L36.5587 30.8022L36.5287 31.1472L36.4957 31.4802C36.2997 33.2202 35.8797 34.4132 34.9797 35.3132C34.0797 36.2132 32.8877 36.6332 31.1467 36.8292L30.8137 36.8632L30.4677 36.8922L30.1077 36.9172L29.7347 36.9372L29.1467 36.9622L28.7367 36.9742L28.0927 36.9872L27.1777 36.9962L26.1977 37.0002L22.8847 36.9992L22.1547 36.9962L21.2407 36.9862L20.8077 36.9792L20.3897 36.9682L19.9867 36.9542L19.5987 36.9382L19.2247 36.9172L18.8647 36.8922L18.5197 36.8622L18.1867 36.8292C16.4467 36.6332 15.2537 36.2132 14.3537 35.3132C13.4537 34.4132 13.0337 33.2212 12.8377 31.4802L12.8037 31.1472L12.7747 30.8012L12.7497 30.4412L12.7297 30.0682L12.7047 29.4802L12.6927 29.0702L12.6797 28.4262L12.6707 27.5112L12.6667 26.5312L12.6677 23.2182L12.6707 22.4882L12.6807 21.5742L12.6877 21.1412L12.6987 20.7232L12.7127 20.3202L12.7287 19.9322L12.7497 19.5582L12.7747 19.1982L12.8047 18.8532L12.8377 18.5202C13.0337 16.7802 13.4537 15.5872 14.3537 14.6872C15.2537 13.7872 16.4457 13.3672 18.1867 13.1712L18.5197 13.1372L18.8657 13.1082L19.2257 13.0832L19.5987 13.0632L20.1867 13.0382L20.5967 13.0262L21.2407 13.0132L22.1557 13.0042ZM19.4567 20.3002H16.7167C16.8467 26.5402 19.9667 30.2902 25.4367 30.2902H25.7467V26.7202C27.7567 26.9202 29.2767 28.3902 29.8867 30.2902H32.7267C31.9467 27.4502 29.8967 25.8802 28.6167 25.2802C29.8967 24.5402 31.6967 22.7402 32.1267 20.3002H29.5467C28.9867 22.2802 27.3267 24.0802 25.7467 24.2502V20.3002H23.1667V27.2202C21.5667 26.8202 19.5467 24.8802 19.4567 20.3002Z" fill="white"/>
</g>
<defs>
<clipPath id="clip0_1_64">
<rect width="24" height="24" fill="white" transform="translate(12.6667 13)"/>
</clipPath>
</defs>
</svg>
