<svg width="100" height="100" viewBox="0 0 100 100" fill="none" xmlns="http://www.w3.org/2000/svg">
<g clip-path="url(#clip0_1_2394)">
<path d="M88.8889 0H11.1111C5 0 0 5 0 11.1111V88.8889C0 95 5 100 11.1111 100H88.8889C95 100 100 95 100 88.8889V11.1111C100 5 95 0 88.8889 0ZM42.8333 73.8333C42.3194 74.3484 41.7089 74.757 41.0368 75.0357C40.3647 75.3145 39.6443 75.458 38.9167 75.458C38.1891 75.458 37.4686 75.3145 36.7965 75.0357C36.1245 74.757 35.514 74.3484 35 73.8333L15.0556 53.8889C14.5412 53.3745 14.1332 52.7639 13.8548 52.0919C13.5765 51.4199 13.4332 50.6996 13.4332 49.9722C13.4332 49.2448 13.5765 48.5246 13.8548 47.8525C14.1332 47.1805 14.5412 46.5699 15.0556 46.0556C15.5699 45.5412 16.1805 45.1332 16.8525 44.8549C17.5246 44.5765 18.2448 44.4332 18.9722 44.4332C19.6996 44.4332 20.4199 44.5765 21.0919 44.8549C21.7639 45.1332 22.3745 45.5412 22.8889 46.0556L38.8889 62.0556L77.1111 23.8333C78.1499 22.7946 79.5587 22.211 81.0278 22.211C82.4968 22.211 83.9057 22.7946 84.9444 23.8333C85.9832 24.8721 86.5668 26.281 86.5668 27.75C86.5668 29.219 85.9832 30.6279 84.9444 31.6667L42.8333 73.8333Z" fill="#39D721"/>
</g>
<defs>
<clipPath id="clip0_1_2394">
<rect width="100" height="100" fill="white"/>
</clipPath>
</defs>
</svg>
