<svg xmlns="http://www.w3.org/2000/svg" style="display:none">
    <symbol id="btnright"  viewBox="0 0 23 18"  xmlns="http://www.w3.org/2000/svg">
        <path d="M-3.66279e-05 8.882C-3.66545e-05 9.492 0.421962 9.937 1.03146 9.937L16.465 9.937L18.961 9.843L15.1175 13.347L12.4925 16.019C12.305 16.2065 12.211 16.4875 12.211 16.757C12.211 17.343 12.656 17.777 13.231 17.777C13.512 17.777 13.758 17.671 13.9925 17.4485L21.7855 9.668C22.0195 9.445 22.137 9.1755 22.137 8.883C22.137 8.6015 22.0195 8.332 21.7855 8.109L13.9925 0.328C13.7575 0.1055 13.512 -3.77011e-07 13.2305 -3.89315e-07C12.6565 -4.14406e-07 12.211 0.4335 12.211 1.0075C12.211 1.289 12.305 1.57 12.4925 1.7575L15.1175 4.4175L18.9725 7.9335L16.465 7.8395L1.03146 7.8395C0.421962 7.8395 -3.66012e-05 8.2725 -3.66279e-05 8.882Z" fill="#1A1A1A"/>

    </symbol>
    <symbol id="whatsapp"  viewBox="0 0 50 50"  xmlns="http://www.w3.org/2000/svg">
        <circle cx="25" cy="25" r="24"  stroke-width="2"/>
        <g clip-path="url(#clip0_1_76)">
            <path d="M33.0682 16.4891C31.9682 15.3783 30.6579 14.4978 29.2139 13.8987C27.7699 13.2997 26.2211 12.9942 24.6577 13.0001C18.1072 13.0001 12.7687 18.3371 12.7627 24.8891C12.7627 26.9876 13.3117 29.0291 14.3482 30.8366L12.6667 37.0001L18.9727 35.3471C20.7165 36.2984 22.6714 36.7962 24.6577 36.7946H24.6637C31.2157 36.7946 36.5527 31.4576 36.5587 24.8996C36.5601 23.3367 36.2522 21.7889 35.6529 20.3455C35.0536 18.9021 34.1762 17.5914 33.0682 16.4891ZM24.6577 34.7816C22.8865 34.7802 21.1481 34.3036 19.6237 33.4016L19.2637 33.1856L15.5227 34.1666L16.5217 30.5171L16.2877 30.1406C15.2975 28.5661 14.7737 26.7431 14.7772 24.8831C14.7772 19.4441 19.2127 15.0071 24.6637 15.0071C25.9624 15.0048 27.2486 15.2595 28.4483 15.7566C29.648 16.2537 30.7374 16.9834 31.6537 17.9036C32.5731 18.8203 33.3019 19.9099 33.7983 21.1096C34.2946 22.3092 34.5487 23.5953 34.5457 24.8936C34.5397 30.3521 30.1042 34.7816 24.6577 34.7816ZM30.0802 27.3806C29.7847 27.2321 28.3252 26.5136 28.0507 26.4116C27.7777 26.3141 27.5782 26.2631 27.3832 26.5601C27.1837 26.8556 26.6137 27.5291 26.4427 27.7226C26.2717 27.9221 26.0947 27.9446 25.7977 27.7976C25.5022 27.6476 24.5437 27.3356 23.4097 26.3201C22.5247 25.5326 21.9322 24.5576 21.7552 24.2621C21.5842 23.9651 21.7387 23.8061 21.8872 23.6576C22.0177 23.5256 22.1827 23.3096 22.3312 23.1386C22.4812 22.9676 22.5307 22.8416 22.6282 22.6436C22.7257 22.4426 22.6792 22.2716 22.6057 22.1231C22.5307 21.9746 21.9382 20.5091 21.6877 19.9181C21.4477 19.3346 21.2032 19.4156 21.0202 19.4081C20.8492 19.3976 20.6497 19.3976 20.4502 19.3976C20.2996 19.4014 20.1514 19.4363 20.0148 19.5001C19.8783 19.5638 19.7564 19.6551 19.6567 19.7681C19.3837 20.0651 18.6202 20.7836 18.6202 22.2491C18.6202 23.7146 19.6852 25.1231 19.8352 25.3226C19.9822 25.5221 21.9262 28.5206 24.9097 29.8106C25.6147 30.1181 26.1697 30.2996 26.6032 30.4376C27.3157 30.6656 27.9592 30.6311 28.4722 30.5576C29.0422 30.4706 30.2287 29.8376 30.4792 29.1431C30.7252 28.4471 30.7252 27.8531 30.6502 27.7286C30.5767 27.6026 30.3772 27.5291 30.0802 27.3806Z" />
        </g>
        <defs>
            <clipPath id="clip0_1_76">
                <rect width="24" height="24"  transform="translate(12.6667 13)"/>
            </clipPath>
        </defs>
    </symbol>

    <symbol  id="telegram"   viewBox="0 0 50 50"  xmlns="http://www.w3.org/2000/svg">
        <circle cx="25" cy="25" r="24"  stroke-width="2"/>
        <g clip-path="url(#clip0_1_412)">
            <path d="M36.6667 25C36.6667 28.1826 35.4025 31.2348 33.152 33.4853C30.9016 35.7357 27.8493 37 24.6667 37C21.4841 37 18.4319 35.7357 16.1815 33.4853C13.931 31.2348 12.6667 28.1826 12.6667 25C12.6667 21.8174 13.931 18.7652 16.1815 16.5147C18.4319 14.2643 21.4841 13 24.6667 13C27.8493 13 30.9016 14.2643 33.152 16.5147C35.4025 18.7652 36.6667 21.8174 36.6667 25ZM25.0972 21.859C23.9292 22.345 21.5962 23.35 18.0982 24.874C17.5312 25.099 17.2337 25.32 17.2057 25.537C17.1607 25.9015 17.6182 26.0455 18.2407 26.242L18.5032 26.3245C19.1152 26.524 19.9402 26.7565 20.3677 26.7655C20.7577 26.7755 21.1917 26.6155 21.6697 26.2855C24.9387 24.0795 26.6257 22.9645 26.7307 22.9405C26.8057 22.9225 26.9107 22.9015 26.9797 22.9645C27.0487 23.0275 27.0427 23.1445 27.0352 23.176C26.9902 23.3695 25.1947 25.0375 24.2662 25.9015C23.9767 26.1715 23.7712 26.362 23.7292 26.4055C23.6368 26.5 23.5428 26.5931 23.4472 26.6845C22.8772 27.2335 22.4512 27.6445 23.4697 28.3165C23.9602 28.6405 24.3532 28.906 24.7447 29.173C25.1707 29.464 25.5967 29.7535 26.1487 30.1165C26.2887 30.2085 26.4237 30.302 26.5537 30.397C27.0502 30.751 27.4987 31.069 28.0492 31.018C28.3702 30.988 28.7017 30.688 28.8697 29.788C29.2672 27.6625 30.0487 23.059 30.2287 21.1615C30.2401 21.0038 30.2335 20.8453 30.2092 20.689C30.1947 20.563 30.1337 20.447 30.0382 20.3635C29.9016 20.2697 29.739 20.2209 29.5732 20.224C29.1232 20.2315 28.4287 20.473 25.0972 21.859Z" />
        </g>
        <defs>
            <clipPath id="clip0_1_412">
                <rect width="24" height="24"  transform="translate(12.6667 13)"/>
            </clipPath>
        </defs>
    </symbol>
    <symbol id="VK"  viewBox="0 0 50 50"  xmlns="http://www.w3.org/2000/svg">
        <circle cx="25" cy="25" r="24"  stroke-width="2"/>
        <g clip-path="url(#clip0_1_404)">
            <path d="M22.1557 13.004L22.8847 13.001H26.4487L27.1787 13.004L28.0927 13.014L28.5257 13.021L28.9437 13.032L29.3467 13.046L29.7347 13.062L30.1087 13.083L30.4687 13.108L30.8137 13.138L31.1467 13.171C32.8867 13.367 34.0797 13.787 34.9797 14.687C35.8797 15.587 36.2997 16.779 36.4957 18.52L36.5297 18.853L36.5587 19.199L36.5837 19.559L36.6037 19.932L36.6287 20.52L36.6407 20.93L36.6537 21.574L36.6627 22.489L36.6667 23.469L36.6657 26.782L36.6627 27.512L36.6527 28.426L36.6457 28.859L36.6347 29.277L36.6207 29.68L36.6047 30.068L36.5837 30.442L36.5587 30.802L36.5287 31.147L36.4957 31.48C36.2997 33.22 35.8797 34.413 34.9797 35.313C34.0797 36.213 32.8877 36.633 31.1467 36.829L30.8137 36.863L30.4677 36.892L30.1077 36.917L29.7347 36.937L29.1467 36.962L28.7367 36.974L28.0927 36.987L27.1777 36.996L26.1977 37L22.8847 36.999L22.1547 36.996L21.2407 36.986L20.8077 36.979L20.3897 36.968L19.9867 36.954L19.5987 36.938L19.2247 36.917L18.8647 36.892L18.5197 36.862L18.1867 36.829C16.4467 36.633 15.2537 36.213 14.3537 35.313C13.4537 34.413 13.0337 33.221 12.8377 31.48L12.8037 31.147L12.7747 30.801L12.7497 30.441L12.7297 30.068L12.7047 29.48L12.6927 29.07L12.6797 28.426L12.6707 27.511L12.6667 26.531L12.6677 23.218L12.6707 22.488L12.6807 21.574L12.6877 21.141L12.6987 20.723L12.7127 20.32L12.7287 19.932L12.7497 19.558L12.7747 19.198L12.8047 18.853L12.8377 18.52C13.0337 16.78 13.4537 15.587 14.3537 14.687C15.2537 13.787 16.4457 13.367 18.1867 13.171L18.5197 13.137L18.8657 13.108L19.2257 13.083L19.5987 13.063L20.1867 13.038L20.5967 13.026L21.2407 13.013L22.1557 13.004ZM19.4567 20.3H16.7167C16.8467 26.54 19.9667 30.29 25.4367 30.29H25.7467V26.72C27.7567 26.92 29.2767 28.39 29.8867 30.29H32.7267C31.9467 27.45 29.8967 25.88 28.6167 25.28C29.8967 24.54 31.6967 22.74 32.1267 20.3H29.5467C28.9867 22.28 27.3267 24.08 25.7467 24.25V20.3H23.1667V27.22C21.5667 26.82 19.5467 24.88 19.4567 20.3Z" />
        </g>
        <defs>
            <clipPath id="clip0_1_404">
                <rect width="24" height="24"  transform="translate(12.6667 13)"/>
            </clipPath>
        </defs>
    </symbol>

    <symbol id="instagramm"  viewBox="0 0 50 50"  xmlns="http://www.w3.org/2000/svg">
        <circle cx="25" cy="25" r="24"  stroke-width="2"/>
        <g clip-path="url(#clip0_1_408)">
            <path d="M24.6667 13C21.4102 13 21.0007 13.015 19.7212 13.072C18.4417 13.132 17.5702 13.333 16.8067 13.63C16.0055 13.9305 15.28 14.4031 14.6812 15.0145C14.0698 15.6132 13.5972 16.3388 13.2967 17.14C12.9997 17.902 12.7972 18.775 12.7387 20.05C12.6817 21.3325 12.6667 21.7405 12.6667 25.0015C12.6667 28.2595 12.6817 28.6675 12.7387 29.947C12.7987 31.225 12.9997 32.0965 13.2967 32.86C13.6042 33.649 14.0137 34.318 14.6812 34.9855C15.3472 35.653 16.0162 36.064 16.8052 36.37C17.5702 36.667 18.4402 36.8695 19.7182 36.928C20.9992 36.985 21.4072 37 24.6667 37C27.9262 37 28.3327 36.985 29.6137 36.928C30.8902 36.868 31.7647 36.667 32.5282 36.37C33.3289 36.0693 34.054 35.5967 34.6522 34.9855C35.3197 34.318 35.7292 33.649 36.0367 32.86C36.3322 32.0965 36.5347 31.225 36.5947 29.947C36.6517 28.6675 36.6667 28.2595 36.6667 25C36.6667 21.7405 36.6517 21.3325 36.5947 20.0515C36.5347 18.775 36.3322 17.902 36.0367 17.14C35.7363 16.3388 35.2636 15.6132 34.6522 15.0145C34.0535 14.4031 33.328 13.9305 32.5267 13.63C31.7617 13.333 30.8887 13.1305 29.6122 13.072C28.3312 13.015 27.9247 13 24.6637 13H24.6667ZM23.5912 15.163H24.6682C27.8722 15.163 28.2517 15.1735 29.5162 15.232C30.6862 15.2845 31.3222 15.481 31.7452 15.6445C32.3047 15.862 32.7052 16.123 33.1252 16.543C33.5452 16.963 33.8047 17.362 34.0222 17.923C34.1872 18.3445 34.3822 18.9805 34.4347 20.1505C34.4932 21.415 34.5052 21.7945 34.5052 24.997C34.5052 28.1995 34.4932 28.5805 34.4347 29.845C34.3822 31.015 34.1857 31.6495 34.0222 32.0725C33.8285 32.5929 33.5216 33.0637 33.1237 33.451C32.7037 33.871 32.3047 34.1305 31.7437 34.348C31.3237 34.513 30.6877 34.708 29.5162 34.762C28.2517 34.819 27.8722 34.8325 24.6682 34.8325C21.4642 34.8325 21.0832 34.819 19.8187 34.762C18.6487 34.708 18.0142 34.513 17.5912 34.348C17.0705 34.1549 16.5991 33.8485 16.2112 33.451C15.8127 33.0634 15.5052 32.592 15.3112 32.071C15.1477 31.6495 14.9512 31.0135 14.8987 29.8435C14.8417 28.579 14.8297 28.1995 14.8297 24.994C14.8297 21.7885 14.8417 21.412 14.8987 20.1475C14.9527 18.9775 15.1477 18.3415 15.3127 17.9185C15.5302 17.359 15.7912 16.9585 16.2112 16.5385C16.6312 16.1185 17.0302 15.859 17.5912 15.6415C18.0142 15.4765 18.6487 15.2815 19.8187 15.2275C20.9257 15.1765 21.3547 15.1615 23.5912 15.16V15.163ZM31.0732 17.155C30.8841 17.155 30.6969 17.1922 30.5222 17.2646C30.3475 17.337 30.1887 17.443 30.055 17.5768C29.9213 17.7105 29.8152 17.8692 29.7429 18.0439C29.6705 18.2186 29.6332 18.4059 29.6332 18.595C29.6332 18.7841 29.6705 18.9714 29.7429 19.1461C29.8152 19.3208 29.9213 19.4795 30.055 19.6132C30.1887 19.747 30.3475 19.853 30.5222 19.9254C30.6969 19.9978 30.8841 20.035 31.0732 20.035C31.4552 20.035 31.8214 19.8833 32.0915 19.6132C32.3615 19.3432 32.5132 18.9769 32.5132 18.595C32.5132 18.2131 32.3615 17.8468 32.0915 17.5768C31.8214 17.3067 31.4552 17.155 31.0732 17.155ZM24.6682 18.838C23.8509 18.8252 23.0391 18.9752 22.2802 19.2792C21.5213 19.5832 20.8305 20.0351 20.248 20.6086C19.6654 21.1822 19.2028 21.8659 18.887 22.6199C18.5712 23.3739 18.4086 24.1833 18.4086 25.0007C18.4086 25.8182 18.5712 26.6276 18.887 27.3816C19.2028 28.1356 19.6654 28.8193 20.248 29.3929C20.8305 29.9664 21.5213 30.4183 22.2802 30.7223C23.0391 31.0263 23.8509 31.1763 24.6682 31.1635C26.2861 31.1383 27.8291 30.4779 28.9642 29.3249C30.0994 28.1719 30.7356 26.6188 30.7356 25.0007C30.7356 23.3827 30.0994 21.8296 28.9642 20.6766C27.8291 19.5236 26.2861 18.8632 24.6682 18.838ZM24.6682 20.9995C25.1936 20.9995 25.7138 21.103 26.1992 21.304C26.6845 21.5051 27.1255 21.7997 27.497 22.1712C27.8685 22.5427 28.1632 22.9837 28.3642 23.4691C28.5653 23.9544 28.6687 24.4746 28.6687 25C28.6687 25.5254 28.5653 26.0456 28.3642 26.5309C28.1632 27.0163 27.8685 27.4573 27.497 27.8288C27.1255 28.2003 26.6845 28.4949 26.1992 28.696C25.7138 28.897 25.1936 29.0005 24.6682 29.0005C23.6073 29.0005 22.5897 28.579 21.8395 27.8288C21.0892 27.0785 20.6677 26.061 20.6677 25C20.6677 23.939 21.0892 22.9215 21.8395 22.1712C22.5897 21.421 23.6073 20.9995 24.6682 20.9995Z" />
        </g>
        <defs>
            <clipPath id="clip0_1_408">
                <rect width="24" height="24"  transform="translate(12.6667 13)"/>
            </clipPath>
        </defs>
    </symbol>
    <symbol id="OK"  viewBox="0 0 50 50"  xmlns="http://www.w3.org/2000/svg">
        <circle cx="25" cy="25" r="24"  stroke-width="2"/>
        <g clip-path="url(#clip0_1_400)">
            <path d="M27.1228 30.441C28.4164 30.1474 29.65 29.6339 30.7698 28.923L30.7228 28.951C31.1142 28.6864 31.3871 28.2797 31.4838 27.8173C31.5804 27.3548 31.4931 26.8729 31.2403 26.4738C30.9876 26.0746 30.5894 25.7896 30.1301 25.6791C29.6707 25.5686 29.1864 25.6414 28.7798 25.882L28.7878 25.877C27.6038 26.628 26.1628 27.073 24.6178 27.073C23.0728 27.073 21.6308 26.627 20.4158 25.858L20.4478 25.877C20.0424 25.6217 19.5524 25.5371 19.0848 25.6416C18.6173 25.7462 18.21 26.0314 17.9518 26.435L17.9478 26.442V26.447C17.6919 26.8525 17.6072 27.3428 17.7122 27.8107C17.8171 28.2785 18.1032 28.6857 18.5078 28.943L18.5148 28.947C19.5973 29.6332 20.7881 30.1313 22.0368 30.42L22.1148 30.435L18.6458 33.9C18.4752 34.0674 18.3397 34.2672 18.2474 34.4877C18.155 34.7082 18.1075 34.9449 18.1078 35.184C18.1078 35.673 18.3028 36.116 18.6178 36.44L18.6478 36.47C18.9738 36.797 19.4248 36.999 19.9228 36.999C20.4208 36.999 20.8718 36.797 21.1978 36.47L24.6188 33.066L28.0188 36.472C28.1872 36.6405 28.3872 36.7741 28.6073 36.8653C28.8274 36.9565 29.0632 37.0035 29.3015 37.0036C29.5397 37.0036 29.7756 36.9567 29.9957 36.8656C30.2158 36.7745 30.4158 36.6409 30.5843 36.4725C30.7528 36.3041 30.8865 36.1041 30.9777 35.884C31.0689 35.6639 31.1159 35.4281 31.1159 35.1898C31.116 34.9516 31.0691 34.7157 30.978 34.4956C30.8868 34.2755 30.7532 34.0755 30.5848 33.907L27.1228 30.441ZM24.6178 25.389C25.8426 25.3878 27.0396 25.0235 28.0574 24.3422C29.0752 23.6609 29.8682 22.6931 30.3361 21.5612C30.8039 20.4293 30.9258 19.184 30.6861 17.9829C30.4464 16.7818 29.856 15.6787 28.9895 14.813C28.123 13.9474 27.0194 13.3581 25.818 13.1196C24.6167 12.881 23.3716 13.0041 22.2401 13.473C21.1086 13.942 20.1416 14.7359 19.4613 15.7544C18.7809 16.7729 18.4178 17.9702 18.4178 19.195V19.201C18.421 20.8432 19.0756 22.4172 20.238 23.5773C21.4004 24.7374 22.9756 25.389 24.6178 25.389ZM24.6178 16.631C25.125 16.631 25.6207 16.7813 26.0424 17.063C26.4642 17.3447 26.7929 17.745 26.9872 18.2135C27.1814 18.6819 27.2325 19.1975 27.1338 19.6949C27.0352 20.1924 26.7913 20.6494 26.433 21.0083C26.0746 21.3672 25.618 21.6118 25.1207 21.7112C24.6234 21.8106 24.1078 21.7604 23.639 21.5669C23.1702 21.3733 22.7694 21.0452 22.4871 20.6239C22.2047 20.2026 22.0536 19.7071 22.0528 19.2V19.198C22.0528 18.5175 22.323 17.8649 22.804 17.3835C23.2849 16.9022 23.9374 16.6315 24.6178 16.631Z" />
        </g>
        <defs>
            <clipPath id="clip0_1_400">
                <rect width="14" height="24"  transform="translate(17.6667 13)"/>
            </clipPath>
        </defs>
    </symbol>

    <symbol id="phoneF" width="22" height="22" viewBox="0 0 22 22"  xmlns="http://www.w3.org/2000/svg">
        <path d="M20.8881 15.9201V18.9201C20.8892 19.1986 20.8322 19.4743 20.7206 19.7294C20.6091 19.9846 20.4454 20.2137 20.2402 20.402C20.035 20.5902 19.7927 20.7336 19.5289 20.8228C19.265 20.912 18.9855 20.9452 18.7081 20.9201C15.631 20.5854 12.6753 19.5339 10.0781 17.8501C7.66194 16.3148 5.61345 14.2663 4.07812 11.8501C2.38843 9.24113 1.33673 6.27101 1.00812 3.1801C0.983127 2.90356 1.01599 2.62486 1.10462 2.36172C1.19324 2.09859 1.33569 1.85679 1.52288 1.65172C1.71008 1.44665 1.93792 1.28281 2.19191 1.17062C2.44589 1.05843 2.72046 1.00036 2.99812 1.0001H5.99812C6.48342 0.995321 6.95391 1.16718 7.32188 1.48363C7.68985 1.80008 7.93019 2.23954 7.99812 2.7201C8.1244 3.68023 8.35924 4.62293 8.69812 5.5301C8.83266 5.88802 8.86178 6.27701 8.78202 6.65098C8.70227 7.02494 8.51698 7.36821 8.24812 7.6401L6.97812 8.9101C8.40167 11.4136 10.4746 13.4865 12.9781 14.9101L14.2481 13.6401C14.52 13.3712 14.8633 13.1859 15.2372 13.1062C15.6112 13.0264 16.0002 13.0556 16.3581 13.1901C17.2653 13.529 18.208 13.7638 19.1681 13.8901C19.6539 13.9586 20.0975 14.2033 20.4146 14.5776C20.7318 14.9519 20.9003 15.4297 20.8881 15.9201Z"  stroke-width="2" stroke-linecap="round" stroke-linejoin="round"/>
    </symbol>
    <symbol id="email" width="24" height="24" viewBox="0 0 24 24"  xmlns="http://www.w3.org/2000/svg">
        <path d="M20 4H4C2.89543 4 2 4.89543 2 6V18C2 19.1046 2.89543 20 4 20H20C21.1046 20 22 19.1046 22 18V6C22 4.89543 21.1046 4 20 4Z"  stroke-width="2" stroke-linecap="round" stroke-linejoin="round"/>
        <path d="M22 7L13.03 12.7C12.7213 12.8934 12.3643 12.996 12 12.996C11.6357 12.996 11.2787 12.8934 10.97 12.7L2 7"  stroke-width="2" stroke-linecap="round" stroke-linejoin="round"/>
    </symbol>

    <symbol id="geo" width="24" height="24" viewBox="0 0 24 24"  xmlns="http://www.w3.org/2000/svg">
        <path d="M12 1C14.3869 1 16.6761 1.94821 18.364 3.63604C20.0518 5.32387 21 7.61305 21 10C21 13.726 18.16 17.63 12.6 21.8C12.4269 21.9298 12.2164 22 12 22C11.7836 22 11.5731 21.9298 11.4 21.8C5.84 17.63 3 13.726 3 10C3 7.61305 3.94821 5.32387 5.63604 3.63604C7.32387 1.94821 9.61305 1 12 1ZM12 3C10.1435 3 8.36301 3.7375 7.05025 5.05025C5.7375 6.36301 5 8.14348 5 10C5 12.71 7.118 15.836 11.448 19.306L12 19.742L12.552 19.306C16.882 15.836 19 12.71 19 10C19 8.14348 18.2625 6.36301 16.9497 5.05025C15.637 3.7375 13.8565 3 12 3ZM12 8C12.5304 8 13.0391 8.21071 13.4142 8.58579C13.7893 8.96086 14 9.46957 14 10C14 10.5304 13.7893 11.0391 13.4142 11.4142C13.0391 11.7893 12.5304 12 12 12C11.4696 12 10.9609 11.7893 10.5858 11.4142C10.2107 11.0391 10 10.5304 10 10C10 9.46957 10.2107 8.96086 10.5858 8.58579C10.9609 8.21071 11.4696 8 12 8Z" fill="#FFA943"/>
    </symbol>
    <symbol id="menu" viewBox="0 0 44 44"  xmlns="http://www.w3.org/2000/svg">
        <path d="M6.51855 21.5925H37.9471"  stroke-width="4" stroke-linecap="round" stroke-linejoin="round"/>
        <path d="M6.51855 36.2593H37.9471"  stroke-width="4" stroke-linecap="round" stroke-linejoin="round"/>
        <path d="M6.51855 6.92603H37.9471"  stroke-width="4" stroke-linecap="round" stroke-linejoin="round"/>
    </symbol>


    <symbol id="btnleft"  viewBox="0 0 23 18"  xmlns="http://www.w3.org/2000/svg">
        <path d="M22.137 8.882C22.137 9.492 21.715 9.937 21.1055 9.937L5.672 9.937L3.176 9.843L7.0195 13.347L9.6445 16.019C9.832 16.2065 9.926 16.4875 9.926 16.757C9.926 17.343 9.481 17.777 8.906 17.777C8.625 17.777 8.379 17.671 8.1445 17.4485L0.3515 9.668C0.1175 9.445 4.01074e-07 9.1755 3.88288e-07 8.883C3.75984e-07 8.6015 0.1175 8.332 0.3515 8.109L8.1445 0.328C8.3795 0.1055 8.625 -3.77011e-07 8.9065 -3.89315e-07C9.4805 -4.14406e-07 9.926 0.4335 9.926 1.0075C9.926 1.289 9.832 1.57 9.6445 1.7575L7.0195 4.4175L3.1645 7.9335L5.672 7.8395L21.1055 7.8395C21.715 7.8395 22.137 8.2725 22.137 8.882Z" fill="#1A1A1A"/>
    </symbol>
    <symbol id="plusznak"  viewBox="0 0 20 20" fill="black" xmlns="http://www.w3.org/2000/svg">
        <path d="M10 0C10.423 0 10.766 0.343 10.766 0.766V9.233H19.234C19.4373 9.233 19.6322 9.31376 19.776 9.4575C19.9197 9.60125 20.0005 9.79621 20.0005 9.9995C20.0005 10.2028 19.9197 10.3978 19.776 10.5415C19.6322 10.6852 19.4373 10.766 19.234 10.766H10.766V19.234C10.766 19.4372 10.6853 19.632 10.5416 19.7756C10.398 19.9193 10.2032 20 10 20C9.79684 20 9.60201 19.9193 9.45836 19.7756C9.3147 19.632 9.234 19.4372 9.234 19.234L9.233 10.766H0.766C0.562844 10.766 0.368009 10.6853 0.224356 10.5416C0.0807033 10.398 0 10.2032 0 10C0 9.79684 0.0807033 9.60201 0.224356 9.45836C0.368009 9.3147 0.562844 9.234 0.766 9.234L9.233 9.233V0.766C9.23353 0.562834 9.31454 0.368154 9.45829 0.224587C9.60205 0.0810201 9.79683 0.000263852 10 0Z" fill="black"/>
    </symbol>
    <symbol id="topquestion"  width="23" height="13" viewBox="0 0 23 13"  xmlns="http://www.w3.org/2000/svg">
        <path d="M1.5 11.0859L10.7929 1.79305C11.1834 1.40252 11.8166 1.40252 12.2071 1.79304L21.5 11.0859" stroke="#1A1A1A" stroke-width="3" stroke-linecap="round"/>
    </symbol>
    <symbol id="topquestion2"  width="23" height="13" viewBox="0 0 23 13"  xmlns="http://www.w3.org/2000/svg">
        <path d="M1.5 1.5L10.7929 10.7929C11.1834 11.1834 11.8166 11.1834 12.2071 10.7929L21.5 1.5" stroke="#1A1A1A" stroke-width="3" stroke-linecap="round"/>
    </symbol>

    <symbol id="comment2st"  viewBox="0 0 70 70"  xmlns="http://www.w3.org/2000/svg">
        <path d="M62.4007 53.551C57.7723 58.4943 50.7686 61 41.5876 61H38.2886V51.8383L40.941 51.315C45.4605 50.4245 48.6044 48.6728 50.2869 46.102C51.1648 44.7171 51.6627 43.1314 51.7319 41.5H41.5876C40.7126 41.5 39.8735 41.1576 39.2548 40.5481C38.6362 39.9386 38.2886 39.112 38.2886 38.25V15.5C38.2886 11.9152 41.2478 9 44.8865 9H64.6803C65.5552 9 66.3943 9.34241 67.013 9.9519C67.6317 10.5614 67.9793 11.388 67.9793 12.25V28.5L67.9694 37.9867C67.9991 38.3475 68.6259 46.895 62.4007 53.551ZM8.59792 9H28.3917C29.2666 9 30.1057 9.34241 30.7244 9.9519C31.3431 10.5614 31.6907 11.388 31.6907 12.25V28.5L31.6808 37.9867C31.7105 38.3475 32.3373 46.895 26.1121 53.551C21.4837 58.4943 14.48 61 5.29896 61H2V51.8383L4.65237 51.315C9.17195 50.4245 12.3159 48.6728 13.9983 46.102C14.8762 44.7171 15.3741 43.1314 15.4433 41.5H5.29896C4.42402 41.5 3.58492 41.1576 2.96624 40.5481C2.34756 39.9386 2 39.112 2 38.25V15.5C2 11.9152 4.95917 9 8.59792 9Z" fill="#FFA943"/>
    </symbol>

    <symbol id="logocolor"  viewBox="0 0 132 33"  xmlns="http://www.w3.org/2000/svg">
        <path d="M-9.76026e-05 32.04L10.7999 0.675038H17.5949L29.7449 32.04H23.0399L11.2499 1.75504L0.809902 32.04H-9.76026e-05ZM29.4925 16.47C29.4925 5.13004 38.9875 3.85046e-05 48.3025 3.85046e-05C57.6175 3.85046e-05 67.1125 5.13004 67.1125 16.47C67.1125 27.855 57.6175 32.76 48.3025 32.76C39.0325 32.76 29.4925 27.855 29.4925 16.47ZM48.3025 0.720037C41.5525 0.720037 36.1075 4.68004 36.1075 16.38C36.1075 28.125 41.5525 32.085 48.3025 32.085C55.0525 32.085 60.4975 28.125 60.4975 16.38C60.4975 4.68004 55.0525 0.720037 48.3025 0.720037ZM94.0787 0.675038V1.39504H77.3387V32.04H70.9487V0.675038H94.0787ZM94.3118 16.47C94.3118 5.13004 103.807 3.85046e-05 113.122 3.85046e-05C122.437 3.85046e-05 131.932 5.13004 131.932 16.47C131.932 27.855 122.437 32.76 113.122 32.76C103.852 32.76 94.3118 27.855 94.3118 16.47ZM113.122 0.720037C106.372 0.720037 100.927 4.68004 100.927 16.38C100.927 28.125 106.372 32.085 113.122 32.085C119.872 32.085 125.317 28.125 125.317 16.38C125.317 4.68004 119.872 0.720037 113.122 0.720037Z" />
    </symbol>

</svg>