<svg width="132" height="33" viewBox="0 0 132 33" fill="none" xmlns="http://www.w3.org/2000/svg">
<path d="M-9.76026e-05 32.04L10.7999 0.675038H17.5949L29.7449 32.04H23.0399L11.2499 1.75504L0.809902 32.04H-9.76026e-05ZM29.4925 16.47C29.4925 5.13004 38.9875 3.85046e-05 48.3025 3.85046e-05C57.6175 3.85046e-05 67.1125 5.13004 67.1125 16.47C67.1125 27.855 57.6175 32.76 48.3025 32.76C39.0325 32.76 29.4925 27.855 29.4925 16.47ZM48.3025 0.720037C41.5525 0.720037 36.1075 4.68004 36.1075 16.38C36.1075 28.125 41.5525 32.085 48.3025 32.085C55.0525 32.085 60.4975 28.125 60.4975 16.38C60.4975 4.68004 55.0525 0.720037 48.3025 0.720037ZM94.0787 0.675038V1.39504H77.3387V32.04H70.9487V0.675038H94.0787ZM94.3118 16.47C94.3118 5.13004 103.807 3.85046e-05 113.122 3.85046e-05C122.437 3.85046e-05 131.932 5.13004 131.932 16.47C131.932 27.855 122.437 32.76 113.122 32.76C103.852 32.76 94.3118 27.855 94.3118 16.47ZM113.122 0.720037C106.372 0.720037 100.927 4.68004 100.927 16.38C100.927 28.125 106.372 32.085 113.122 32.085C119.872 32.085 125.317 28.125 125.317 16.38C125.317 4.68004 119.872 0.720037 113.122 0.720037Z" fill="white"/>
</svg>
