<svg width="20" height="20" viewBox="0 0 20 20" fill="none" xmlns="http://www.w3.org/2000/svg">
<path d="M10 0C10.423 0 10.766 0.343 10.766 0.766V9.233H19.234C19.4373 9.233 19.6322 9.31376 19.776 9.4575C19.9197 9.60125 20.0005 9.79621 20.0005 9.9995C20.0005 10.2028 19.9197 10.3978 19.776 10.5415C19.6322 10.6852 19.4373 10.766 19.234 10.766H10.766V19.234C10.766 19.4372 10.6853 19.632 10.5416 19.7756C10.398 19.9193 10.2032 20 10 20C9.79684 20 9.60201 19.9193 9.45836 19.7756C9.3147 19.632 9.234 19.4372 9.234 19.234L9.233 10.766H0.766C0.562844 10.766 0.368009 10.6853 0.224356 10.5416C0.0807033 10.398 0 10.2032 0 10C0 9.79684 0.0807033 9.60201 0.224356 9.45836C0.368009 9.3147 0.562844 9.234 0.766 9.234L9.233 9.233V0.766C9.23353 0.562834 9.31454 0.368154 9.45829 0.224587C9.60205 0.0810201 9.79683 0.000263852 10 0Z" fill="black"/>
</svg>
