<svg width="50" height="50" viewBox="0 0 50 50" fill="none" xmlns="http://www.w3.org/2000/svg">
<circle cx="25" cy="25" r="24" stroke="white" stroke-width="2"/>
<g clip-path="url(#clip0_1_412)">
<path d="M36.6667 25C36.6667 28.1826 35.4025 31.2348 33.152 33.4853C30.9016 35.7357 27.8493 37 24.6667 37C21.4841 37 18.4319 35.7357 16.1815 33.4853C13.931 31.2348 12.6667 28.1826 12.6667 25C12.6667 21.8174 13.931 18.7652 16.1815 16.5147C18.4319 14.2643 21.4841 13 24.6667 13C27.8493 13 30.9016 14.2643 33.152 16.5147C35.4025 18.7652 36.6667 21.8174 36.6667 25ZM25.0972 21.859C23.9292 22.345 21.5962 23.35 18.0982 24.874C17.5312 25.099 17.2337 25.32 17.2057 25.537C17.1607 25.9015 17.6182 26.0455 18.2407 26.242L18.5032 26.3245C19.1152 26.524 19.9402 26.7565 20.3677 26.7655C20.7577 26.7755 21.1917 26.6155 21.6697 26.2855C24.9387 24.0795 26.6257 22.9645 26.7307 22.9405C26.8057 22.9225 26.9107 22.9015 26.9797 22.9645C27.0487 23.0275 27.0427 23.1445 27.0352 23.176C26.9902 23.3695 25.1947 25.0375 24.2662 25.9015C23.9767 26.1715 23.7712 26.362 23.7292 26.4055C23.6368 26.5 23.5428 26.5931 23.4472 26.6845C22.8772 27.2335 22.4512 27.6445 23.4697 28.3165C23.9602 28.6405 24.3532 28.906 24.7447 29.173C25.1707 29.464 25.5967 29.7535 26.1487 30.1165C26.2887 30.2085 26.4237 30.302 26.5537 30.397C27.0502 30.751 27.4987 31.069 28.0492 31.018C28.3702 30.988 28.7017 30.688 28.8697 29.788C29.2672 27.6625 30.0487 23.059 30.2287 21.1615C30.2401 21.0038 30.2335 20.8453 30.2092 20.689C30.1947 20.563 30.1337 20.447 30.0382 20.3635C29.9016 20.2697 29.739 20.2209 29.5732 20.224C29.1232 20.2315 28.4287 20.473 25.0972 21.859Z" fill="white"/>
</g>
<defs>
<clipPath id="clip0_1_412">
<rect width="24" height="24" fill="white" transform="translate(12.6667 13)"/>
</clipPath>
</defs>
</svg>
