<svg width="50" height="50" viewBox="0 0 50 50" fill="none" xmlns="http://www.w3.org/2000/svg">
<circle cx="25" cy="25" r="24" stroke="white" stroke-width="2"/>
<g clip-path="url(#clip0_1_404)">
<path d="M22.1557 13.004L22.8847 13.001H26.4487L27.1787 13.004L28.0927 13.014L28.5257 13.021L28.9437 13.032L29.3467 13.046L29.7347 13.062L30.1087 13.083L30.4687 13.108L30.8137 13.138L31.1467 13.171C32.8867 13.367 34.0797 13.787 34.9797 14.687C35.8797 15.587 36.2997 16.779 36.4957 18.52L36.5297 18.853L36.5587 19.199L36.5837 19.559L36.6037 19.932L36.6287 20.52L36.6407 20.93L36.6537 21.574L36.6627 22.489L36.6667 23.469L36.6657 26.782L36.6627 27.512L36.6527 28.426L36.6457 28.859L36.6347 29.277L36.6207 29.68L36.6047 30.068L36.5837 30.442L36.5587 30.802L36.5287 31.147L36.4957 31.48C36.2997 33.22 35.8797 34.413 34.9797 35.313C34.0797 36.213 32.8877 36.633 31.1467 36.829L30.8137 36.863L30.4677 36.892L30.1077 36.917L29.7347 36.937L29.1467 36.962L28.7367 36.974L28.0927 36.987L27.1777 36.996L26.1977 37L22.8847 36.999L22.1547 36.996L21.2407 36.986L20.8077 36.979L20.3897 36.968L19.9867 36.954L19.5987 36.938L19.2247 36.917L18.8647 36.892L18.5197 36.862L18.1867 36.829C16.4467 36.633 15.2537 36.213 14.3537 35.313C13.4537 34.413 13.0337 33.221 12.8377 31.48L12.8037 31.147L12.7747 30.801L12.7497 30.441L12.7297 30.068L12.7047 29.48L12.6927 29.07L12.6797 28.426L12.6707 27.511L12.6667 26.531L12.6677 23.218L12.6707 22.488L12.6807 21.574L12.6877 21.141L12.6987 20.723L12.7127 20.32L12.7287 19.932L12.7497 19.558L12.7747 19.198L12.8047 18.853L12.8377 18.52C13.0337 16.78 13.4537 15.587 14.3537 14.687C15.2537 13.787 16.4457 13.367 18.1867 13.171L18.5197 13.137L18.8657 13.108L19.2257 13.083L19.5987 13.063L20.1867 13.038L20.5967 13.026L21.2407 13.013L22.1557 13.004ZM19.4567 20.3H16.7167C16.8467 26.54 19.9667 30.29 25.4367 30.29H25.7467V26.72C27.7567 26.92 29.2767 28.39 29.8867 30.29H32.7267C31.9467 27.45 29.8967 25.88 28.6167 25.28C29.8967 24.54 31.6967 22.74 32.1267 20.3H29.5467C28.9867 22.28 27.3267 24.08 25.7467 24.25V20.3H23.1667V27.22C21.5667 26.82 19.5467 24.88 19.4567 20.3Z" fill="white"/>
</g>
<defs>
<clipPath id="clip0_1_404">
<rect width="24" height="24" fill="white" transform="translate(12.6667 13)"/>
</clipPath>
</defs>
</svg>
